<svg xmlns="http://www.w3.org/2000/svg" width="300" height="169"><path d="M68,223L-9,227L158,228Z" fill="#666666" stroke="#666666" stroke-width="1.51"/><path d="M37,-51L120,-48L223,-66Z" fill="#cecece" stroke="#cecece" stroke-width="1.51"/><path d="M-54,-64L37,-51L223,-66Z" fill="#e1e1e1" stroke="#e1e1e1" stroke-width="1.51"/><path d="M272,221L158,228L317,222Z" fill="#363636" stroke="#363636" stroke-width="1.51"/><path d="M343,67L318,71L363,135Z" fill="#515151" stroke="#515151" stroke-width="1.51"/><path d="M318,71L317,141L363,135Z" fill="#4a4a4a" stroke="#4a4a4a" stroke-width="1.51"/><path d="M344,184L337,221L363,135Z" fill="#292929" stroke="#292929" stroke-width="1.51"/><path d="M317,141L344,184L363,135Z" fill="#383838" stroke="#383838" stroke-width="1.51"/><path d="M223,-66L254,-60L363,-50Z" fill="#999999" stroke="#999999" stroke-width="1.51"/><path d="M254,-60L297,-47L363,-50Z" fill="#8d8d8d" stroke="#8d8d8d" stroke-width="1.51"/><path d="M297,-47L323,0L363,-50Z" fill="#7f7f7f" stroke="#7f7f7f" stroke-width="1.51"/><path d="M311,32L343,67L364,30Z" fill="#666666" stroke="#666666" stroke-width="1.51"/><path d="M343,67L363,135L364,30Z" fill="#525252" stroke="#525252" stroke-width="1.51"/><path d="M323,0L364,30L365,-18Z" fill="#6f6f6f" stroke="#6f6f6f" stroke-width="1.51"/><path d="M363,-50L323,0L365,-18Z" fill="#767676" stroke="#767676" stroke-width="1.51"/><path d="M323,0L311,32L364,30Z" fill="#6f6f6f" stroke="#6f6f6f" stroke-width="1.51"/><path d="M273,113L317,141L318,71Z" fill="#575757" stroke="#575757" stroke-width="1.51"/><path d="M311,32L318,71L343,67Z" fill="#656565" stroke="#656565" stroke-width="1.51"/><path d="M317,222L337,221L344,184Z" fill="#1f1f1f" stroke="#1f1f1f" stroke-width="1.51"/><path d="M297,176L317,222L344,184Z" fill="#292929" stroke="#292929" stroke-width="1.51"/><path d="M317,141L297,176L344,184Z" fill="#383838" stroke="#383838" stroke-width="1.51"/><path d="M297,176L272,221L317,222Z" fill="#2c2c2c" stroke="#2c2c2c" stroke-width="1.51"/><path d="M274,79L273,113L318,71Z" fill="#666666" stroke="#666666" stroke-width="1.51"/><path d="M261,8L311,32L323,0Z" fill="#808080" stroke="#808080" stroke-width="1.51"/><path d="M297,-47L261,8L323,0Z" fill="#898989" stroke="#898989" stroke-width="1.51"/><path d="M277,180L272,221L297,176Z" fill="#393939" stroke="#393939" stroke-width="1.51"/><path d="M311,32L274,79L318,71Z" fill="#6d6d6d" stroke="#6d6d6d" stroke-width="1.51"/><path d="M273,113L297,176L317,141Z" fill="#4c4c4c" stroke="#4c4c4c" stroke-width="1.51"/><path d="M273,113L277,180L297,176Z" fill="#4d4d4d" stroke="#4d4d4d" stroke-width="1.51"/><path d="M251,52L274,79L311,32Z" fill="#7a7a7a" stroke="#7a7a7a" stroke-width="1.51"/><path d="M261,8L251,52L311,32Z" fill="#858585" stroke="#858585" stroke-width="1.51"/><path d="M226,204L158,228L272,221Z" fill="#414141" stroke="#414141" stroke-width="1.51"/><path d="M254,-60L261,8L297,-47Z" fill="#999999" stroke="#999999" stroke-width="1.51"/><path d="M120,-48L172,-47L223,-66Z" fill="#bebebe" stroke="#bebebe" stroke-width="1.51"/><path d="M254,-60L228,0L261,8Z" fill="#9e9e9e" stroke="#9e9e9e" stroke-width="1.51"/><path d="M203,130L222,175L273,113Z" fill="#646464" stroke="#646464" stroke-width="1.51"/><path d="M227,95L273,113L274,79Z" fill="#707070" stroke="#707070" stroke-width="1.51"/><path d="M226,204L272,221L277,180Z" fill="#3c3c3c" stroke="#3c3c3c" stroke-width="1.51"/><path d="M222,175L226,204L277,180Z" fill="#4a4a4a" stroke="#4a4a4a" stroke-width="1.51"/><path d="M273,113L222,175L277,180Z" fill="#565656" stroke="#565656" stroke-width="1.51"/><path d="M227,95L203,130L273,113Z" fill="#6f6f6f" stroke="#6f6f6f" stroke-width="1.51"/><path d="M251,52L227,95L274,79Z" fill="#7b7b7b" stroke="#7b7b7b" stroke-width="1.51"/><path d="M231,55L227,95L251,52Z" fill="#838383" stroke="#838383" stroke-width="1.51"/><path d="M228,0L231,55L251,52Z" fill="#919191" stroke="#919191" stroke-width="1.51"/><path d="M223,-66L228,0L254,-60Z" fill="#a8a8a8" stroke="#a8a8a8" stroke-width="1.51"/><path d="M228,0L251,52L261,8Z" fill="#939393" stroke="#939393" stroke-width="1.51"/><path d="M172,-47L180,-7L223,-66Z" fill="#b5b5b5" stroke="#b5b5b5" stroke-width="1.51"/><path d="M223,-66L180,-7L228,0Z" fill="#acacac" stroke="#acacac" stroke-width="1.51"/><path d="M168,90L227,95L231,55Z" fill="#868686" stroke="#868686" stroke-width="1.51"/><path d="M186,27L168,90L231,55Z" fill="#959595" stroke="#959595" stroke-width="1.51"/><path d="M228,0L186,27L231,55Z" fill="#9b9b9b" stroke="#9b9b9b" stroke-width="1.51"/><path d="M180,-7L186,27L228,0Z" fill="#a7a7a7" stroke="#a7a7a7" stroke-width="1.51"/><path d="M222,175L155,184L226,204Z" fill="#545454" stroke="#545454" stroke-width="1.51"/><path d="M168,90L203,130L227,95Z" fill="#7d7d7d" stroke="#7d7d7d" stroke-width="1.51"/><path d="M203,130L168,146L222,175Z" fill="#6a6a6a" stroke="#6a6a6a" stroke-width="1.51"/><path d="M155,184L158,228L226,204Z" fill="#505050" stroke="#505050" stroke-width="1.51"/><path d="M168,146L155,184L222,175Z" fill="#666666" stroke="#666666" stroke-width="1.51"/><path d="M168,90L168,146L203,130Z" fill="#7c7c7c" stroke="#7c7c7c" stroke-width="1.51"/><path d="M168,90L133,99L168,146Z" fill="#888888" stroke="#888888" stroke-width="1.51"/><path d="M172,-47L140,-16L180,-7Z" fill="#bababa" stroke="#bababa" stroke-width="1.51"/><path d="M180,-7L136,36L186,27Z" fill="#adadad" stroke="#adadad" stroke-width="1.51"/><path d="M136,36L168,90L186,27Z" fill="#a2a2a2" stroke="#a2a2a2" stroke-width="1.51"/><path d="M155,184L137,205L158,228Z" fill="#595959" stroke="#595959" stroke-width="1.51"/><path d="M140,-16L136,36L180,-7Z" fill="#b7b7b7" stroke="#b7b7b7" stroke-width="1.51"/><path d="M37,-51L73,-40L120,-48Z" fill="#dddddd" stroke="#dddddd" stroke-width="1.51"/><path d="M112,118L130,158L133,99Z" fill="#8c8c8c" stroke="#8c8c8c" stroke-width="1.51"/><path d="M136,36L133,99L168,90Z" fill="#9c9c9c" stroke="#9c9c9c" stroke-width="1.51"/><path d="M130,158L155,184L168,146Z" fill="#737373" stroke="#737373" stroke-width="1.51"/><path d="M133,99L130,158L168,146Z" fill="#828282" stroke="#828282" stroke-width="1.51"/><path d="M120,-48L140,-16L172,-47Z" fill="#c5c5c5" stroke="#c5c5c5" stroke-width="1.51"/><path d="M-54,-64L7,-49L37,-51Z" fill="#f1f1f1" stroke="#f1f1f1" stroke-width="1.51"/><path d="M97,79L133,99L136,36Z" fill="#a6a6a6" stroke="#a6a6a6" stroke-width="1.51"/><path d="M137,205L68,223L158,228Z" fill="#5c5c5c" stroke="#5c5c5c" stroke-width="1.51"/><path d="M130,158L137,205L155,184Z" fill="#696969" stroke="#696969" stroke-width="1.51"/><path d="M86,10L88,31L136,36Z" fill="#c0c0c0" stroke="#c0c0c0" stroke-width="1.51"/><path d="M88,31L97,79L136,36Z" fill="#b6b6b6" stroke="#b6b6b6" stroke-width="1.51"/><path d="M130,158L88,169L137,205Z" fill="#747474" stroke="#747474" stroke-width="1.51"/><path d="M86,10L136,36L140,-16Z" fill="#c0c0c0" stroke="#c0c0c0" stroke-width="1.51"/><path d="M120,-48L86,10L140,-16Z" fill="#cacaca" stroke="#cacaca" stroke-width="1.51"/><path d="M88,169L68,223L137,205Z" fill="#6d6d6d" stroke="#6d6d6d" stroke-width="1.51"/><path d="M73,-40L86,10L120,-48Z" fill="#d4d4d4" stroke="#d4d4d4" stroke-width="1.51"/><path d="M97,79L112,118L133,99Z" fill="#9c9c9c" stroke="#9c9c9c" stroke-width="1.51"/><path d="M112,118L88,169L130,158Z" fill="#878787" stroke="#878787" stroke-width="1.51"/><path d="M97,79L85,113L112,118Z" fill="#9f9f9f" stroke="#9f9f9f" stroke-width="1.51"/><path d="M85,113L88,169L112,118Z" fill="#929292" stroke="#929292" stroke-width="1.51"/><path d="M36,181L68,223L88,169Z" fill="#7a7a7a" stroke="#7a7a7a" stroke-width="1.51"/><path d="M85,113L35,145L88,169Z" fill="#949494" stroke="#949494" stroke-width="1.51"/><path d="M33,84L85,113L97,79Z" fill="#ababab" stroke="#ababab" stroke-width="1.51"/><path d="M88,31L38,45L97,79Z" fill="#bebebe" stroke="#bebebe" stroke-width="1.51"/><path d="M38,45L33,84L97,79Z" fill="#bababa" stroke="#bababa" stroke-width="1.51"/><path d="M73,-40L32,0L86,10Z" fill="#d7d7d7" stroke="#d7d7d7" stroke-width="1.51"/><path d="M86,10L38,45L88,31Z" fill="#c8c8c8" stroke="#c8c8c8" stroke-width="1.51"/><path d="M35,145L36,181L88,169Z" fill="#8e8e8e" stroke="#8e8e8e" stroke-width="1.51"/><path d="M32,0L38,45L86,10Z" fill="#d1d1d1" stroke="#d1d1d1" stroke-width="1.51"/><path d="M33,84L35,145L85,113Z" fill="#a6a6a6" stroke="#a6a6a6" stroke-width="1.51"/><path d="M24,209L-9,227L68,223Z" fill="#727272" stroke="#727272" stroke-width="1.51"/><path d="M36,181L24,209L68,223Z" fill="#777777" stroke="#777777" stroke-width="1.51"/><path d="M37,-51L32,0L73,-40Z" fill="#e1e1e1" stroke="#e1e1e1" stroke-width="1.51"/><path d="M7,-49L-23,-20L32,0Z" fill="#e8e8e8" stroke="#e8e8e8" stroke-width="1.51"/><path d="M33,84L-2,132L35,145Z" fill="#a9a9a9" stroke="#a9a9a9" stroke-width="1.51"/><path d="M35,145L-12,157L36,181Z" fill="#979797" stroke="#979797" stroke-width="1.51"/><path d="M7,-49L32,0L37,-51Z" fill="#e7e7e7" stroke="#e7e7e7" stroke-width="1.51"/><path d="M7,50L33,84L38,45Z" fill="#c6c6c6" stroke="#c6c6c6" stroke-width="1.51"/><path d="M32,0L7,50L38,45Z" fill="#d2d2d2" stroke="#d2d2d2" stroke-width="1.51"/><path d="M-14,71L-2,132L33,84Z" fill="#b8b8b8" stroke="#b8b8b8" stroke-width="1.51"/><path d="M-2,132L-12,157L35,145Z" fill="#a0a0a0" stroke="#a0a0a0" stroke-width="1.51"/><path d="M-12,157L24,209L36,181Z" fill="#8a8a8a" stroke="#8a8a8a" stroke-width="1.51"/><path d="M-23,-20L7,50L32,0Z" fill="#dedede" stroke="#dedede" stroke-width="1.51"/><path d="M7,50L-14,71L33,84Z" fill="#c5c5c5" stroke="#c5c5c5" stroke-width="1.51"/><path d="M-12,157L-9,227L24,209Z" fill="#828282" stroke="#828282" stroke-width="1.51"/><path d="M-40,-18L-44,52L-23,-20Z" fill="#e7e7e7" stroke="#e7e7e7" stroke-width="1.51"/><path d="M-12,157L-49,172L-9,227Z" fill="#8f8f8f" stroke="#8f8f8f" stroke-width="1.51"/><path d="M-14,71L-47,89L-2,132Z" fill="#bcbcbc" stroke="#bcbcbc" stroke-width="1.51"/><path d="M-44,52L-14,71L7,50Z" fill="#cfcfcf" stroke="#cfcfcf" stroke-width="1.51"/><path d="M-23,-20L-44,52L7,50Z" fill="#dddddd" stroke="#dddddd" stroke-width="1.51"/><path d="M-54,-64L-23,-20L7,-49Z" fill="#f2f2f2" stroke="#f2f2f2" stroke-width="1.51"/><path d="M-49,172L-52,227L-9,227Z" fill="#828282" stroke="#828282" stroke-width="1.51"/><path d="M-56,135L-12,157L-2,132Z" fill="#a8a8a8" stroke="#a8a8a8" stroke-width="1.51"/><path d="M-47,89L-56,135L-2,132Z" fill="#b4b4b4" stroke="#b4b4b4" stroke-width="1.51"/><path d="M-54,-64L-40,-18L-23,-20Z" fill="#f2f2f2" stroke="#f2f2f2" stroke-width="1.51"/><path d="M-56,135L-49,172L-12,157Z" fill="#a3a3a3" stroke="#a3a3a3" stroke-width="1.51"/><path d="M-44,52L-47,89L-14,71Z" fill="#cbcbcb" stroke="#cbcbcb" stroke-width="1.51"/><path d="M-54,-64L-44,52L-40,-18Z" fill="#ececec" stroke="#ececec" stroke-width="1.51"/><path d="M-56,135L-47,89L-44,52Z" fill="#c2c2c2" stroke="#c2c2c2" stroke-width="1.51"/><path d="M-54,-64L-56,135L-44,52Z" fill="#dcdcdc" stroke="#dcdcdc" stroke-width="1.51"/><path d="M-56,135L-52,227L-49,172Z" fill="#979797" stroke="#979797" stroke-width="1.51"/></svg>