<?xml version="1.0" standalone="no"?><!DOCTYPE svg PUBLIC "-//W3C//DTD SVG 1.1//EN" "http://www.w3.org/Graphics/SVG/1.1/DTD/svg11.dtd"><svg t="1516872597100" class="icon" style="" viewBox="0 0 1024 1024" version="1.1" xmlns="http://www.w3.org/2000/svg" p-id="1399" xmlns:xlink="http://www.w3.org/1999/xlink" width="200" height="200"><defs><style type="text/css"></style></defs><path d="M505.162857 396.703951c69.419056 0 125.896377-57.091719 125.896377-127.266957s-56.477321-127.266957-125.896377-127.266956-125.904254 57.091719-125.904254 127.266956 56.485198 127.266957 125.904254 127.266957z m0-192.361598c35.138819 0 63.724063 29.199642 63.724063 65.094641 0 35.895-28.585244 65.094642-63.724063 65.094642s-63.731939-29.199642-63.731939-65.094642c0-35.895 28.593121-65.094642 63.731939-65.094641zM631.059234 753.999808c0-70.175238-56.477321-127.266957-125.896377-127.266957s-125.904254 57.091719-125.904254 127.266957 56.477321 127.266957 125.904254 127.266956 125.896377-57.083842 125.896377-127.266956z m-189.628316 0c0-35.895 28.593121-65.094642 63.731939-65.094642s63.724063 29.199642 63.724063 65.094642c0 35.895-28.585244 65.094642-63.724063 65.094642s-63.731939-29.199642-63.731939-65.094642zM266.327591 384.447506c-69.419056 0-125.904254 57.091719-125.904254 127.266957s56.477321 127.266957 125.904254 127.266956 125.896377-57.091719 125.896377-127.266956-56.477321-127.266957-125.896377-127.266957z m0 192.369475c-35.138819 0-63.731939-29.199642-63.731939-65.094641s28.593121-65.094642 63.731939-65.094642 63.724063 29.199642 63.724063 65.094642-28.585244 65.094642-63.724063 65.094641zM743.998123 638.989296c69.419056 0 125.904254-57.091719 125.904254-127.266956s-56.477321-127.266957-125.904254-127.266957S618.101746 441.539225 618.101746 511.72234s56.477321 127.266957 125.896377 127.266956z m0-192.361598c35.138819 0 63.731939 29.199642 63.73194 65.094642s-28.593121 65.094642-63.73194 65.094641c-35.138819 0-63.724063-29.199642-63.724063-65.094641s28.585244-65.094642 63.724063-65.094642z" fill="#dbdbdb" p-id="1400"></path><path d="M846.492252 961.823747H746.243038c157.183395-86.890004 264.07283-255.936 264.07283-449.825716 0-282.315714-226.610328-511.998031-505.160888-511.998031S0.001969 229.682317 0.001969 511.998031s226.610328 511.998031 505.160888 511.998031h341.337272a31.090096 31.090096 0 1 0-0.007877-62.172315zM62.174284 511.998031c0-248.035477 198.726128-449.825716 442.988573-449.825716S948.143553 263.962554 948.143553 511.998031s-198.726128 449.825716-442.988573 449.825716S62.174284 760.033508 62.174284 511.998031z" fill="#dbdbdb" p-id="1401"></path></svg>