<svg xmlns="http://www.w3.org/2000/svg" width="92" height="131"><path d="M-5,158L-18,159L34,162Z" fill="#6c6c6c" stroke="#6c6c6c" stroke-width="1.51"/><path d="M100,71L92,88L111,70Z" fill="#5a5a5a" stroke="#5a5a5a" stroke-width="1.51"/><path d="M111,70L92,88L114,98Z" fill="#4e4e4e" stroke="#4e4e4e" stroke-width="1.51"/><path d="M-7,-30L10,-29L117,-27Z" fill="#cecece" stroke="#cecece" stroke-width="1.51"/><path d="M10,-29L39,-26L117,-27Z" fill="#bebebe" stroke="#bebebe" stroke-width="1.51"/><path d="M75,-20L100,-20L117,-27Z" fill="#929292" stroke="#929292" stroke-width="1.51"/><path d="M39,-26L75,-20L117,-27Z" fill="#aaaaaa" stroke="#aaaaaa" stroke-width="1.51"/><path d="M100,-20L111,-1L117,-27Z" fill="#828282" stroke="#828282" stroke-width="1.51"/><path d="M100,117L92,139L118,139Z" fill="#2f2f2f" stroke="#2f2f2f" stroke-width="1.51"/><path d="M112,109L100,117L118,139Z" fill="#323232" stroke="#323232" stroke-width="1.51"/><path d="M114,98L112,109L118,139Z" fill="#343434" stroke="#343434" stroke-width="1.51"/><path d="M117,-27L111,-1L119,11Z" fill="#787878" stroke="#787878" stroke-width="1.51"/><path d="M101,50L111,56L120,32Z" fill="#646464" stroke="#646464" stroke-width="1.51"/><path d="M100,35L101,50L120,32Z" fill="#6c6c6c" stroke="#6c6c6c" stroke-width="1.51"/><path d="M119,11L99,16L120,32Z" fill="#707070" stroke="#707070" stroke-width="1.51"/><path d="M99,16L100,35L120,32Z" fill="#727272" stroke="#727272" stroke-width="1.51"/><path d="M111,70L114,98L120,32Z" fill="#525252" stroke="#525252" stroke-width="1.51"/><path d="M111,56L111,70L120,32Z" fill="#5c5c5c" stroke="#5c5c5c" stroke-width="1.51"/><path d="M114,98L118,139L120,32Z" fill="#414141" stroke="#414141" stroke-width="1.51"/><path d="M111,-1L99,16L119,11Z" fill="#787878" stroke="#787878" stroke-width="1.51"/><path d="M92,139L110,149L118,139Z" fill="#232323" stroke="#232323" stroke-width="1.51"/><path d="M100,-20L92,-4L111,-1Z" fill="#898989" stroke="#898989" stroke-width="1.51"/><path d="M111,56L100,71L111,70Z" fill="#595959" stroke="#595959" stroke-width="1.51"/><path d="M92,88L112,109L114,98Z" fill="#454545" stroke="#454545" stroke-width="1.51"/><path d="M92,-4L99,16L111,-1Z" fill="#848484" stroke="#848484" stroke-width="1.51"/><path d="M101,50L100,71L111,56Z" fill="#616161" stroke="#616161" stroke-width="1.51"/><path d="M92,88L100,117L112,109Z" fill="#474747" stroke="#474747" stroke-width="1.51"/><path d="M52,151L34,162L90,156Z" fill="#464646" stroke="#464646" stroke-width="1.51"/><path d="M92,139L90,156L110,149Z" fill="#2a2a2a" stroke="#2a2a2a" stroke-width="1.51"/><path d="M39,-26L49,-21L75,-20Z" fill="#bebebe" stroke="#bebebe" stroke-width="1.51"/><path d="M80,150L52,151L90,156Z" fill="#3c3c3c" stroke="#3c3c3c" stroke-width="1.51"/><path d="M92,-4L80,13L99,16Z" fill="#909090" stroke="#909090" stroke-width="1.51"/><path d="M79,76L92,88L100,71Z" fill="#656565" stroke="#656565" stroke-width="1.51"/><path d="M92,88L82,117L100,117Z" fill="#515151" stroke="#515151" stroke-width="1.51"/><path d="M82,117L92,139L100,117Z" fill="#434343" stroke="#434343" stroke-width="1.51"/><path d="M99,16L80,29L100,35Z" fill="#848484" stroke="#848484" stroke-width="1.51"/><path d="M80,29L81,58L100,35Z" fill="#848484" stroke="#848484" stroke-width="1.51"/><path d="M100,35L81,58L101,50Z" fill="#767676" stroke="#767676" stroke-width="1.51"/><path d="M81,58L100,71L101,50Z" fill="#6d6d6d" stroke="#6d6d6d" stroke-width="1.51"/><path d="M82,117L77,132L92,139Z" fill="#474747" stroke="#474747" stroke-width="1.51"/><path d="M71,97L82,117L92,88Z" fill="#5f5f5f" stroke="#5f5f5f" stroke-width="1.51"/><path d="M80,13L80,29L99,16Z" fill="#909090" stroke="#909090" stroke-width="1.51"/><path d="M81,58L79,76L100,71Z" fill="#707070" stroke="#707070" stroke-width="1.51"/><path d="M75,-20L92,-4L100,-20Z" fill="#9b9b9b" stroke="#9b9b9b" stroke-width="1.51"/><path d="M80,150L90,156L92,139Z" fill="#353535" stroke="#353535" stroke-width="1.51"/><path d="M77,132L80,150L92,139Z" fill="#3d3d3d" stroke="#3d3d3d" stroke-width="1.51"/><path d="M71,0L80,13L92,-4Z" fill="#9c9c9c" stroke="#9c9c9c" stroke-width="1.51"/><path d="M75,-20L71,0L92,-4Z" fill="#a3a3a3" stroke="#a3a3a3" stroke-width="1.51"/><path d="M79,76L71,97L92,88Z" fill="#696969" stroke="#696969" stroke-width="1.51"/><path d="M80,29L60,38L81,58Z" fill="#8f8f8f" stroke="#8f8f8f" stroke-width="1.51"/><path d="M60,79L71,97L79,76Z" fill="#747474" stroke="#747474" stroke-width="1.51"/><path d="M80,13L58,9L80,29Z" fill="#9e9e9e" stroke="#9e9e9e" stroke-width="1.51"/><path d="M61,61L79,76L81,58Z" fill="#7e7e7e" stroke="#7e7e7e" stroke-width="1.51"/><path d="M60,38L61,61L81,58Z" fill="#8d8d8d" stroke="#8d8d8d" stroke-width="1.51"/><path d="M71,97L57,115L82,117Z" fill="#636363" stroke="#636363" stroke-width="1.51"/><path d="M59,129L77,132L82,117Z" fill="#535353" stroke="#535353" stroke-width="1.51"/><path d="M57,115L59,129L82,117Z" fill="#5e5e5e" stroke="#5e5e5e" stroke-width="1.51"/><path d="M58,9L60,38L80,29Z" fill="#9f9f9f" stroke="#9f9f9f" stroke-width="1.51"/><path d="M77,132L59,129L80,150Z" fill="#494949" stroke="#494949" stroke-width="1.51"/><path d="M59,129L52,151L80,150Z" fill="#4a4a4a" stroke="#4a4a4a" stroke-width="1.51"/><path d="M61,61L60,79L79,76Z" fill="#7f7f7f" stroke="#7f7f7f" stroke-width="1.51"/><path d="M71,0L58,9L80,13Z" fill="#a5a5a5" stroke="#a5a5a5" stroke-width="1.51"/><path d="M49,-21L71,0L75,-20Z" fill="#b1b1b1" stroke="#b1b1b1" stroke-width="1.51"/><path d="M49,-21L50,-2L71,0Z" fill="#b7b7b7" stroke="#b7b7b7" stroke-width="1.51"/><path d="M60,79L50,95L71,97Z" fill="#787878" stroke="#787878" stroke-width="1.51"/><path d="M50,95L57,115L71,97Z" fill="#707070" stroke="#707070" stroke-width="1.51"/><path d="M50,-2L58,9L71,0Z" fill="#b0b0b0" stroke="#b0b0b0" stroke-width="1.51"/><path d="M50,95L41,110L57,115Z" fill="#767676" stroke="#767676" stroke-width="1.51"/><path d="M34,138L52,151L59,129Z" fill="#5a5a5a" stroke="#5a5a5a" stroke-width="1.51"/><path d="M58,9L37,29L60,38Z" fill="#acacac" stroke="#acacac" stroke-width="1.51"/><path d="M35,77L60,79L61,61Z" fill="#8b8b8b" stroke="#8b8b8b" stroke-width="1.51"/><path d="M40,49L35,77L61,61Z" fill="#999999" stroke="#999999" stroke-width="1.51"/><path d="M60,38L40,49L61,61Z" fill="#9b9b9b" stroke="#9b9b9b" stroke-width="1.51"/><path d="M35,77L50,95L60,79Z" fill="#878787" stroke="#878787" stroke-width="1.51"/><path d="M37,29L40,49L60,38Z" fill="#ababab" stroke="#ababab" stroke-width="1.51"/><path d="M29,11L37,29L38,1Z" fill="#c3c3c3" stroke="#c3c3c3" stroke-width="1.51"/><path d="M38,1L37,29L58,9Z" fill="#b9b9b9" stroke="#b9b9b9" stroke-width="1.51"/><path d="M57,115L41,110L59,129Z" fill="#6b6b6b" stroke="#6b6b6b" stroke-width="1.51"/><path d="M41,110L34,138L59,129Z" fill="#6a6a6a" stroke="#6a6a6a" stroke-width="1.51"/><path d="M50,-2L38,1L58,9Z" fill="#bababa" stroke="#bababa" stroke-width="1.51"/><path d="M39,-26L38,1L49,-21Z" fill="#c8c8c8" stroke="#c8c8c8" stroke-width="1.51"/><path d="M49,-21L38,1L50,-2Z" fill="#c2c2c2" stroke="#c2c2c2" stroke-width="1.51"/><path d="M35,77L39,95L50,95Z" fill="#8a8a8a" stroke="#8a8a8a" stroke-width="1.51"/><path d="M39,95L41,110L50,95Z" fill="#808080" stroke="#808080" stroke-width="1.51"/><path d="M34,138L34,162L52,151Z" fill="#595959" stroke="#595959" stroke-width="1.51"/><path d="M34,138L21,151L34,162Z" fill="#626262" stroke="#626262" stroke-width="1.51"/><path d="M22,53L17,68L35,77Z" fill="#aaaaaa" stroke="#aaaaaa" stroke-width="1.51"/><path d="M12,-1L38,1L39,-26Z" fill="#d2d2d2" stroke="#d2d2d2" stroke-width="1.51"/><path d="M10,-29L12,-1L39,-26Z" fill="#dddddd" stroke="#dddddd" stroke-width="1.51"/><path d="M35,77L18,93L39,95Z" fill="#949494" stroke="#949494" stroke-width="1.51"/><path d="M37,29L18,32L40,49Z" fill="#b9b9b9" stroke="#b9b9b9" stroke-width="1.51"/><path d="M18,32L22,53L40,49Z" fill="#b9b9b9" stroke="#b9b9b9" stroke-width="1.51"/><path d="M22,53L35,77L40,49Z" fill="#a7a7a7" stroke="#a7a7a7" stroke-width="1.51"/><path d="M10,117L34,138L41,110Z" fill="#7d7d7d" stroke="#7d7d7d" stroke-width="1.51"/><path d="M39,95L18,93L41,110Z" fill="#8b8b8b" stroke="#8b8b8b" stroke-width="1.51"/><path d="M18,93L10,117L41,110Z" fill="#8d8d8d" stroke="#8d8d8d" stroke-width="1.51"/><path d="M10,117L12,136L34,138Z" fill="#7b7b7b" stroke="#7b7b7b" stroke-width="1.51"/><path d="M29,11L17,21L37,29Z" fill="#c7c7c7" stroke="#c7c7c7" stroke-width="1.51"/><path d="M12,-1L29,11L38,1Z" fill="#d0d0d0" stroke="#d0d0d0" stroke-width="1.51"/><path d="M17,21L18,32L37,29Z" fill="#c6c6c6" stroke="#c6c6c6" stroke-width="1.51"/><path d="M21,151L-5,158L34,162Z" fill="#666666" stroke="#666666" stroke-width="1.51"/><path d="M17,68L18,93L35,77Z" fill="#a1a1a1" stroke="#a1a1a1" stroke-width="1.51"/><path d="M12,136L21,151L34,138Z" fill="#6e6e6e" stroke="#6e6e6e" stroke-width="1.51"/><path d="M12,-1L17,21L29,11Z" fill="#d2d2d2" stroke="#d2d2d2" stroke-width="1.51"/><path d="M10,-29L-2,-4L12,-1Z" fill="#e4e4e4" stroke="#e4e4e4" stroke-width="1.51"/><path d="M-4,97L10,117L18,93Z" fill="#9b9b9b" stroke="#9b9b9b" stroke-width="1.51"/><path d="M17,68L-6,77L18,93Z" fill="#aaaaaa" stroke="#aaaaaa" stroke-width="1.51"/><path d="M-4,55L17,68L22,53Z" fill="#b8b8b8" stroke="#b8b8b8" stroke-width="1.51"/><path d="M18,32L-5,38L22,53Z" fill="#c6c6c6" stroke="#c6c6c6" stroke-width="1.51"/><path d="M-5,38L-4,55L22,53Z" fill="#c5c5c5" stroke="#c5c5c5" stroke-width="1.51"/><path d="M12,136L-5,141L21,151Z" fill="#757575" stroke="#757575" stroke-width="1.51"/><path d="M-5,141L-5,158L21,151Z" fill="#737373" stroke="#737373" stroke-width="1.51"/><path d="M12,-1L-6,8L17,21Z" fill="#dbdbdb" stroke="#dbdbdb" stroke-width="1.51"/><path d="M17,21L-5,38L18,32Z" fill="#cdcdcd" stroke="#cdcdcd" stroke-width="1.51"/><path d="M-6,77L-4,97L18,93Z" fill="#a7a7a7" stroke="#a7a7a7" stroke-width="1.51"/><path d="M-6,8L-5,38L17,21Z" fill="#d7d7d7" stroke="#d7d7d7" stroke-width="1.51"/><path d="M-4,55L-6,77L17,68Z" fill="#b8b8b8" stroke="#b8b8b8" stroke-width="1.51"/><path d="M-7,-30L-2,-4L10,-29Z" fill="#ebebeb" stroke="#ebebeb" stroke-width="1.51"/><path d="M-4,97L-6,115L10,117Z" fill="#9a9a9a" stroke="#9a9a9a" stroke-width="1.51"/><path d="M-2,-4L-6,8L12,-1Z" fill="#e2e2e2" stroke="#e2e2e2" stroke-width="1.51"/><path d="M10,117L-6,115L12,136Z" fill="#8c8c8c" stroke="#8c8c8c" stroke-width="1.51"/><path d="M-6,115L-5,141L12,136Z" fill="#858585" stroke="#858585" stroke-width="1.51"/><path d="M-6,115L-19,116L-5,141Z" fill="#929292" stroke="#929292" stroke-width="1.51"/><path d="M-19,116L-31,129L-5,141Z" fill="#919191" stroke="#919191" stroke-width="1.51"/><path d="M-6,8L-21,20L-5,38Z" fill="#dfdfdf" stroke="#dfdfdf" stroke-width="1.51"/><path d="M-21,20L-22,37L-5,38Z" fill="#dcdcdc" stroke="#dcdcdc" stroke-width="1.51"/><path d="M-5,141L-18,159L-5,158Z" fill="#787878" stroke="#787878" stroke-width="1.51"/><path d="M-19,116L-6,115L-4,97Z" fill="#9f9f9f" stroke="#9f9f9f" stroke-width="1.51"/><path d="M-24,98L-19,116L-4,97Z" fill="#a6a6a6" stroke="#a6a6a6" stroke-width="1.51"/><path d="M-6,77L-24,98L-4,97Z" fill="#aeaeae" stroke="#aeaeae" stroke-width="1.51"/><path d="M-23,74L-6,77L-4,55Z" fill="#bebebe" stroke="#bebebe" stroke-width="1.51"/><path d="M-26,58L-23,74L-4,55Z" fill="#c6c6c6" stroke="#c6c6c6" stroke-width="1.51"/><path d="M-5,38L-22,37L-4,55Z" fill="#d2d2d2" stroke="#d2d2d2" stroke-width="1.51"/><path d="M-19,-10L-6,8L-2,-4Z" fill="#e9e9e9" stroke="#e9e9e9" stroke-width="1.51"/><path d="M-7,-30L-19,-10L-2,-4Z" fill="#efefef" stroke="#efefef" stroke-width="1.51"/><path d="M-25,-30L-19,-10L-7,-30Z" fill="#f5f5f5" stroke="#f5f5f5" stroke-width="1.51"/><path d="M-23,74L-24,98L-6,77Z" fill="#b6b6b6" stroke="#b6b6b6" stroke-width="1.51"/><path d="M-22,37L-26,58L-4,55Z" fill="#cfcfcf" stroke="#cfcfcf" stroke-width="1.51"/><path d="M-31,129L-18,159L-5,141Z" fill="#828282" stroke="#828282" stroke-width="1.51"/><path d="M-19,-10L-21,20L-6,8Z" fill="#e9e9e9" stroke="#e9e9e9" stroke-width="1.51"/><path d="M-24,98L-31,129L-19,116Z" fill="#a2a2a2" stroke="#a2a2a2" stroke-width="1.51"/><path d="M-25,-30L-21,20L-19,-10Z" fill="#f1f1f1" stroke="#f1f1f1" stroke-width="1.51"/><path d="M-26,58L-22,37L-21,20Z" fill="#dbdbdb" stroke="#dbdbdb" stroke-width="1.51"/><path d="M-25,-30L-26,58L-21,20Z" fill="#e7e7e7" stroke="#e7e7e7" stroke-width="1.51"/><path d="M-26,58L-24,98L-23,74Z" fill="#bdbdbd" stroke="#bdbdbd" stroke-width="1.51"/><path d="M-26,58L-31,129L-24,98Z" fill="#b1b1b1" stroke="#b1b1b1" stroke-width="1.51"/><path d="M-31,129L-26,58L-25,-30Z" fill="#d1d1d1" stroke="#d1d1d1" stroke-width="1.51"/></svg>