<?xml version="1.0" standalone="no"?><!DOCTYPE svg PUBLIC "-//W3C//DTD SVG 1.1//EN" "http://www.w3.org/Graphics/SVG/1.1/DTD/svg11.dtd"><svg t="1516873041478" class="icon" style="" viewBox="0 0 1146 1024" version="1.1" xmlns="http://www.w3.org/2000/svg" p-id="6056" xmlns:xlink="http://www.w3.org/1999/xlink" width="223.828125" height="200"><defs><style type="text/css"></style></defs><path d="M502.322593 81.029478c-243.188718 0-440.347077 197.158359-440.347077 440.347077 0 243.188718 197.158359 440.347077 440.347077 440.347077 243.188718 0 440.347077-197.158359 440.347077-440.347077C942.66967 278.187837 745.511311 81.029478 502.322593 81.029478M502.322593 921.710312c-99.682303 0-190.639898-36.603663-260.638135-96.874351 53.952796-47.233768 79.725786-60.07012 139.294486-86.444814 68.995397-30.486338 92.461855-84.439134 64.382333-148.119479-5.0142-11.432377-10.930957-22.062482-17.148565-33.194006-21.26021-38.408775-46.030359-81.932034-46.030359-181.313485 0-117.633141 55.858192-118.535697 100.183723-119.237685 31.489178-0.50142 46.832631-5.916756 59.167564-10.329253 8.223289-2.908236 13.237489-4.713348 22.26305-4.713348 37.105083 0 78.020958 36.603663 78.020958 139.294486 0 103.59338-15.544021 129.065518-39.110763 171.184801-6.217608 11.131525-12.936637 23.165606-20.056801 37.606503-13.738909 27.979238-16.546861 54.153364-8.323573 77.920674 10.630105 30.386054 38.208207 55.256488 86.946234 78.32181 39.913035 18.853393 81.731466 55.657624 104.195084 76.917834C694.968172 884.10381 603.108021 921.710312 502.322593 921.710312M794.149055 794.750759c-23.967878-22.864754-69.998237-63.580061-115.828029-85.241406-37.807071-17.850553-59.468416-36.001959-66.287729-55.256488-4.613064-13.438057-2.607384-28.78151 6.418176-47.033199 6.819313-13.738909 13.237489-25.171286 19.154245-35.701107 24.970718-44.626383 44.225247-76.81755 44.225247-190.840466 0-170.683381-98.478895-179.307805-118.034277-179.307805-15.945157 0-25.973558 3.50994-35.600823 6.919597-10.529821 3.810792-21.561062 7.621585-46.431495 8.022721-45.127803 0.701988-139.595338 2.306532-139.595338 159.251004 0 109.810988 28.580942 160.253844 51.04456 200.768583 5.716188 10.329253 11.131525 20.157085 15.443737 29.984918 19.154245 43.422975 5.114484 73.708745-43.924395 95.370091-62.075801 27.377534-91.258447 41.718147-152.231123 95.269807C144.208403 725.253942 101.988836 628.379591 101.988836 521.376555c0-221.126236 179.207521-400.333758 400.333758-400.333758 221.126236 0 400.333758 179.207521 400.333758 400.333758C902.656351 627.176183 861.239056 723.147978 794.149055 794.750759" p-id="6057" fill="#ffffff"></path></svg>